<svg xmlns="http://www.w3.org/2000/svg" viewBox="0 0 964.75 1027.34">
  <title>safari-pinned-tab</title>
  <g id="Layer_2" data-name="Layer 2">
    <g id="Layer_1-2" data-name="Layer 1">
      <g>
        <path d="M296.92,557.78c-40.63,5.26-55.77,59-53.81,93.27,1.88,32.78,23,88.45,63,88.91C391.78,740.93,386,546.25,296.92,557.78Zm-7.67,52.41c-8.16-19.86,28.37-26.89,31.15-4C322.31,621.84,294,621.68,289.25,610.19Z"/>
        <path d="M382,236.57l39.8,1.13c-31.27,14.69-62.16,30.66-90.63,50.34-12.36,8.55-76.73,52.71-68.57,70.54,33.38-5,68.45-19.25,100.22-30.52,28.84-10.22,37.74-43.84,55.26-67a228.27,228.27,0,0,1,14.82-18c4.83-5.19,13.75-9.28,17.78-14.13,3.62-4.37,7.66-2.32,4.67-9.93-1.78-4.51-14.42-4.75-17.31-5.05a131.76,131.76,0,0,0-47,3.63C382.9,219.67,359.44,235.94,382,236.57Z"/>
        <path d="M338.21,238c22.48,1.34,24.73-5.86,35.91-24.11a107.84,107.84,0,0,1,36.44-36.32c24.17-14.43,6.3-17.31-12.8-12.44C376,170.66,354.32,176.68,333,183.81c-38.12,12.76-76.52,30.22-103.54,61-8.28,9.43,4.61,10.05,10.2,9.39,10.32-1.23,21.82-7.8,32.19-10.31A226,226,0,0,1,338.21,238Z"/>
        <path d="M925.68,349.73c13.78-29.41,25.5-60,32.61-91.72C983.76,144.34,933.92,17.92,807.14,1.57c-59.08-7.63-117.81,13.2-164.69,48.54-25.35,19.12-43,27-75.24,20.14-27.74-5.88-55.16-10.32-83.34-11.2V59l-1.5,0-1.5,0v.09c-28.18.88-55.6,5.32-83.34,11.2-32.23,6.83-49.89-1-75.24-20.14C275.41,14.77,216.68-6.06,157.6,1.57,30.82,17.92-19,144.34,6.45,258c7.11,31.75,18.83,62.31,32.61,91.72,6.26,13.37,17.49,28.16,20.52,42.62,2.79,13.35-2.47,29.08-4.74,42.17C43.09,502.26,29.24,570,20.36,638.21c-7.69,59.1-6.36,118.2,18.69,173.14C60,857.29,94,897.2,135.49,925.83c46.18,31.84,96.3,43.59,151.55,47.75,32.16,2.41,62.08,7.31,92.06,19.77,24.83,10.31,48.79,23.21,74.91,30.11a116.34,116.34,0,0,0,26.86,3.83v0l1.5,0,1.5,0v0a116.34,116.34,0,0,0,26.86-3.83c26.12-6.9,50.08-19.8,74.91-30.11,30-12.46,59.9-17.36,92.06-19.77,55.25-4.16,105.37-15.91,151.55-47.75,41.54-28.63,75.48-68.54,96.44-114.48,25-54.94,26.38-114,18.69-173.14-8.88-68.19-22.73-136-34.48-203.69-2.27-13.09-7.53-28.82-4.74-42.17C908.19,377.89,919.42,363.1,925.68,349.73ZM482.87,964.22c16.38,0,44-2.28,65.51-2.78-11.87,18.05-38.51,30.78-65.51,30.78s-54.64-12.73-66.51-30.78M482,862.85q-.49,1.63-1,3.22l-.11.21v.12c-21.23,63.3-94.11,87.47-155.26,83.74C257.7,946,176.44,922.17,125.73,875a279.8,279.8,0,0,0,78.72,1c-61.86-42.84-128.64-89.84-158.9-161.59a435.49,435.49,0,0,0,180.69,36.93c-48-48-96.48-96.73-132.83-154.49C84.72,583,45.45,520.14,90,534c34.58,10.73,67.83,20.06,104.28,22a561.18,561.18,0,0,1-69.52-127.06c-16.75-43-33.69-88.14-12.53-132.37C150.07,217.48,214.31,149,287.6,101.62c-4-2-13.08-8.35-17.85-8.81-7.41-.72-10.12,3.72-16.89,9.39L226.2,124.5l-56.64,47.39C157,182.4,95.87,220.22,78.87,245.22c-20.38,30-12.3,69.32-5.64,110.17C11.34,270.9-10.28,118.55,88,51.21,135,19.06,195.37,16,247.75,36c47.65,18.28,98.94,79.46,154.77,56.77a116.61,116.61,0,0,0-48.62,37.42,192.72,192.72,0,0,1,53.73,1.6c14.3,2.44,30.33,12.3,44.21,13.13,10.64.63,17.64-8.76,13.15-19.58-4.73-11.4-21.09-12.88-31.5-13.62,9.9-18.62,28.55-28.1,47.38-28.49h0l1.5,0,1.5,0h0c18.83.39,37.48,9.87,47.38,28.49-10.41.74-26.77,2.22-31.5,13.62-4.49,10.82,2.51,20.21,13.15,19.58,13.88-.83,29.91-10.69,44.21-13.13a192.72,192.72,0,0,1,53.73-1.6,116.61,116.61,0,0,0-48.62-37.42C618.05,115.51,669.34,54.33,717,36,769.37,16,829.77,19.06,876.7,51.21,975,118.55,953.4,270.9,891.51,355.39c6.66-40.85,14.74-80.19-5.64-110.17-17-25-78.13-62.82-90.69-73.33L738.54,124.5l-26.66-22.3c-6.77-5.67-9.48-10.11-16.89-9.39-4.77.46-13.88,6.85-17.85,8.81C750.43,149,814.67,217.48,852.51,296.56c21.16,44.23,4.22,89.37-12.53,132.37A561.18,561.18,0,0,1,770.46,556c36.45-2,69.7-11.3,104.28-22,44.55-13.82,5.28,49.07-3.41,62.87C835,654.59,786.46,703.28,738.5,751.32a435.49,435.49,0,0,0,180.69-36.93c-30.26,71.75-97,118.75-158.9,161.59A279.8,279.8,0,0,0,839,875c-50.71,47.17-132,71-199.88,75.14-61.15,3.73-134-20.44-155.26-83.74v-.12l-.11-.21q-.53-1.6-1-3.22l-.37-1Z"/>
        <path d="M667.82,557.78C578.73,546.25,573,740.93,658.6,740c40.08-.46,61.15-56.13,63-88.91C723.59,616.73,708.45,563,667.82,557.78Zm7.67,52.41c-4.73,11.49-33.06,11.65-31.15-4C647.12,583.3,683.65,590.33,675.49,610.19Z"/>
        <path d="M514,228.85c4,4.85,13,8.94,17.78,14.13a228.25,228.25,0,0,1,14.82,18c17.52,23.2,26.42,56.82,55.26,67,31.77,11.27,66.84,25.54,100.22,30.52,8.16-17.83-56.21-62-68.57-70.54-28.47-19.68-59.36-35.65-90.63-50.34l39.8-1.13c22.59-.63-.87-16.9-9.08-19.07a131.76,131.76,0,0,0-47-3.63c-2.89.3-15.53.54-17.31,5.05C506.37,226.53,510.41,224.48,514,228.85Z"/>
        <path d="M541.89,766.62c-3.83.5-10.47,12-14.61,14.53-7.12,4.31-15.93,6-24,7.33a125.76,125.76,0,0,1-41.82,0c-8.07-1.32-16.88-3-24-7.33-4.14-2.51-10.78-14-14.61-14.53-18.62-2.45-11.53,28-7.35,36.54,8.19,16.7,23.16,33.35,39.16,42.8a58.53,58.53,0,0,0,26.21,8.46v.11l1.5,0,1.5,0v-.11A58.53,58.53,0,0,0,510.08,846c16-9.45,31-26.1,39.16-42.8C553.42,794.65,560.51,764.17,541.89,766.62Z"/>
        <path d="M567,165.12c-19.1-4.87-37-2-12.8,12.44a107.85,107.85,0,0,1,36.44,36.32c11.18,18.25,13.43,25.45,35.91,24.11a226,226,0,0,1,66.32,5.89c10.37,2.51,21.87,9.08,32.19,10.31,5.59.66,18.48,0,10.2-9.39-27-30.77-65.42-48.23-103.54-61C610.42,176.68,588.72,170.66,567,165.12Z"/>
        <path d="M616.23,408.84c5.3-8.09-12-21.44-16.46-25.83a467.5,467.5,0,0,0-58.34-48.6c-9.42-6.64-16.88-14.71-1.24-16.25,4.93-.49,10.91,4.22,15.59.74,4.18-3.1,5-7.38-.35-10.14-9.15-4.75-60.74-34-50.29-2.92,3.52,10.44,14.75,20,20.56,29.52a176.66,176.66,0,0,1,16.58,35.25,120.6,120.6,0,0,1-40.45-18.35c-10.68,12.37,5.88,22.39-1.09,32.76-3,4.41-8,3.44-10.49,11.65-1.87,6.23,2.69,20.78-2.72,25.07a6.5,6.5,0,0,1-10.32,0c-5.41-4.29-.85-18.84-2.72-25.07C472,388.46,467,389.43,464,385c-7-10.37,9.59-20.39-1.09-32.76a120.6,120.6,0,0,1-40.45,18.35A176.66,176.66,0,0,1,439,335.36c5.81-9.5,17-19.08,20.56-29.52,10.45-31-41.14-1.83-50.29,2.92-5.3,2.76-4.53,7-.35,10.14,4.68,3.48,10.66-1.23,15.59-.74,15.64,1.54,8.18,9.61-1.24,16.25A467.5,467.5,0,0,0,365,383c-4.48,4.39-21.76,17.74-16.46,25.83,5.62,8.59,24.31-2.71,31.37-5.09,15.49-5.24,53.59-26.57,69.48-13.9C445,396.34,420.5,422,434.29,426.31c11.41,3.55,17.72-16.94,25.26.18,4.44,10.09,5,39.53,19.32,43.73,1.29.38,1.9,1,3,1,2,0,3-.78,4.25-1.16,14.37-4.2,14.63-33.48,19.07-43.57,7.54-17.12,13.85,3.37,25.26-.18,13.79-4.28-10.7-30-15.07-36.46,15.89-12.67,54,8.66,69.48,13.9C591.92,406.13,610.61,417.43,616.23,408.84Z"/>
      </g>
    </g>
  </g>
</svg>
